<!-- Generated by IcoMoon.io -->
<svg version="1.1" xmlns="http://www.w3.org/2000/svg" width="28" height="28" viewBox="0 0 28 28">
<title>coin-dollar</title>
<path fill="#251307" d="M13.125 1.75c-7.249 0-13.125 5.876-13.125 13.125s5.876 13.125 13.125 13.125c7.249 0 13.125-5.876 13.125-13.125s-5.876-13.125-13.125-13.125zM13.125 25.375c-5.799 0-10.5-4.701-10.5-10.5s4.701-10.5 10.5-10.5c5.799 0 10.5 4.701 10.5 10.5s-4.701 10.5-10.5 10.5zM14 14v-3.5h3.5v-1.75h-3.5v-1.75h-1.75v1.75h-3.5v7h3.5v3.5h-3.5v1.75h3.5v1.75h1.75v-1.75h3.5l-0-7h-3.5zM12.25 14h-1.75v-3.5h1.75v3.5zM15.75 19.25h-1.75v-3.5h1.75v3.5z"></path>
</svg>
