<svg class="svg-icon" xmlns="http://www.w3.org/2000/svg">
<symbol id="cart" viewBox="0 0 28 28"><path d="M10.5 25.375a2.625 2.625 0 1 1-5.25 0 2.625 2.625 0 0 1 5.25 0zM28 25.375a2.625 2.625 0 1 1-5.25 0 2.625 2.625 0 0 1 5.25 0zM28 14V3.5H7a1.75 1.75 0 0 0-1.75-1.75H0V3.5h3.5l1.315 11.267A3.5 3.5 0 0 0 7 21h21v-1.75H7a1.75 1.75 0 0 1-1.75-1.75v-.018L28 14z"/></symbol>
<symbol id="checkmark" viewBox="0 0 28 28"><path d="M23.625 3.5L10.5 16.625 4.375 10.5 0 14.875l10.5 10.5L28 7.875z"/></symbol>
<symbol id="coin-dollar" viewBox="0 0 28 28"><path d="M13.125 1.75C5.876 1.75 0 7.626 0 14.875S5.876 28 13.125 28 26.25 22.124 26.25 14.875 20.374 1.75 13.125 1.75zm0 23.625c-5.799 0-10.5-4.701-10.5-10.5s4.701-10.5 10.5-10.5 10.5 4.701 10.5 10.5-4.701 10.5-10.5 10.5zM14 14v-3.5h3.5V8.75H14V7h-1.75v1.75h-3.5v7h3.5v3.5h-3.5V21h3.5v1.75H14V21h3.5v-7H14zm-1.75 0H10.5v-3.5h1.75V14zm3.5 5.25H14v-3.5h1.75v3.5z"/></symbol>
<symbol id="cross" viewBox="0 0 28 28"><path d="M27.745 22.495l-8.494-8.494 8.494-8.494a.875.875 0 0 0 0-1.237L23.732.257a.875.875 0 0 0-1.237 0l-8.494 8.494L5.507.257a.875.875 0 0 0-1.237 0L.257 4.27a.875.875 0 0 0 0 1.237l8.494 8.494-8.494 8.494a.876.876 0 0 0 0 1.237l4.013 4.013a.875.875 0 0 0 1.237 0l8.494-8.494 8.494 8.494a.875.875 0 0 0 1.237 0l4.013-4.013a.875.875 0 0 0 0-1.237z"/></symbol>
<symbol id="minus" viewBox="0 0 28 28"><path d="M0 11.375v5.25c0 .483.392.875.875.875h26.25a.875.875 0 0 0 .875-.875v-5.25a.875.875 0 0 0-.875-.875H.875a.875.875 0 0 0-.875.875z"/></symbol>
<symbol id="plus" viewBox="0 0 28 28"><path d="M27.125 10.5H17.5V.875A.875.875 0 0 0 16.625 0h-5.25a.875.875 0 0 0-.875.875V10.5H.875a.875.875 0 0 0-.875.875v5.25c0 .483.392.875.875.875H10.5v9.625c0 .483.392.875.875.875h5.25a.875.875 0 0 0 .875-.875V17.5h9.625a.875.875 0 0 0 .875-.875v-5.25a.875.875 0 0 0-.875-.875z"/></symbol>
</svg>